<?xml version="1.0" encoding="utf-8"?>
<!-- Generator: Adobe Illustrator 23.0.2, SVG Export Plug-In . SVG Version: 6.00 Build 0)  -->
<svg version="1.1" id="Capa_1" xmlns="http://www.w3.org/2000/svg" xmlns:xlink="http://www.w3.org/1999/xlink" x="0px" y="0px"
	 viewBox="0 0 396.3 396.3" style="enable-background:new 0 0 396.3 396.3;" xml:space="preserve">
<style type="text/css">
	.st0{fill:#FFFFFF;}
</style>
<g>
	<path class="st0" d="M72.9,359.1c-18.3-32.3-5.9-83,32-120.8c43-43,102.5-53.3,132.9-22.9c0,0,0.1,0.1,0.1,0.1
		c-6.1,17.7-25.4,55.3-83.5,75.7C101.3,309.8,80.8,339.4,72.9,359.1z M219.9,265c-13.9,13.9-33.6,27.5-61.5,37.3
		c-56.7,19.9-72.5,52.4-77,68.2c0.2,0.2,0.4,0.4,0.6,0.6c30.4,30.4,89.9,20.1,132.9-22.9c38.3-38.3,50.6-89.6,31.5-121.8
		C241.7,237.1,233.7,251.2,219.9,265z M102.6,125c61.3,5.4,94.4-20.9,107.2-34.6c0-0.1,0-0.1-0.1-0.2C194.6,50.1,136.1,35,79.2,56.5
		c-50.1,18.9-82.4,59.9-79,96.9C15.6,138.7,46.5,120.1,102.6,125z M134.1,202c50.7-19.1,83-60.8,78.9-98.1
		c-8.6,7.9-21.7,17.4-40,24.3c-18.4,6.9-42,11.2-71.4,8.6c-59.9-5.2-87.7,17.9-98.2,30.4c0.1,0.3,0.2,0.6,0.3,0.8
		C18.8,208.3,77.2,223.5,134.1,202z M311.4,118.2c36.8-49.3,31.8-91.3,26.9-109.4c-0.1,0-0.1,0-0.2,0C296,0.5,252.4,42.3,240.8,102
		c-10.2,52.6,7.7,101.6,41,118.1C277.3,199.4,277.8,163.4,311.4,118.2z M351.4,13.1c2.2,11.5,3.4,27.6-0.3,46.8
		c-3.7,19.3-12.5,41.6-30.2,65.3c-35.9,48.2-30.9,84-25.7,99.6c0.3,0.1,0.6,0.1,0.8,0.2c42.2,8.2,85.8-33.5,97.4-93.3
		C403.8,78.6,385.3,29.2,351.4,13.1z"/>
</g>
</svg>
