<?xml version="1.0" encoding="utf-8"?>
<!-- Generator: Adobe Illustrator 23.0.2, SVG Export Plug-In . SVG Version: 6.00 Build 0)  -->
<svg version="1.1" id="Layer_1" xmlns="http://www.w3.org/2000/svg" xmlns:xlink="http://www.w3.org/1999/xlink" x="0px" y="0px"
	 viewBox="0 0 100 100.1" style="enable-background:new 0 0 100 100.1;" xml:space="preserve">
<style type="text/css">
	.st0{fill:#FFFFFF;}
</style>
<g>
	<path class="st0" d="M74.1,79.8l-7.8-22.6h0.6c0.5,0,0.9-0.2,1.2-0.6c0.3-0.4,0.3-0.9,0.2-1.3L64.8,45L69,33.8
		c0.2-0.5,0.1-1-0.2-1.4c-0.3-0.4-0.7-0.6-1.2-0.6H67l3.1-8.1c0.2-0.5,0.1-1-0.2-1.4c-0.3-0.4-0.7-0.6-1.2-0.6h-4.1l2.7-9.7
		c0.1-0.5,0-1-0.3-1.4s-0.9-0.5-1.3-0.5l-30.2,5.5c-0.4,0.1-0.8,0.3-1,0.7s-0.3,0.8-0.2,1.2l1.2,4.3h-4.2c-0.5,0-0.9,0.2-1.2,0.6
		c-0.3,0.4-0.3,0.9-0.2,1.4l3.1,8.1h-0.6c-0.5,0-0.9,0.2-1.2,0.6c-0.3,0.4-0.3,0.9-0.2,1.4L35.2,45l-3.5,10.2
		c-0.2,0.5-0.1,0.9,0.2,1.3c0.3,0.4,0.7,0.6,1.2,0.6h0.6l-7.8,22.7c-0.7,2.4-0.2,4.9,1.3,6.9s3.8,3.1,6.2,3.1h33.2
		c2.5,0,4.8-1.1,6.2-3.1C74.4,84.8,74.8,82.3,74.1,79.8C74.1,79.9,74.1,79.9,74.1,79.8z M66.6,86.9H33.4c-1.5,0-3-0.7-3.9-1.9
		c-0.9-1.2-1.2-2.8-0.8-4.2l8.1-23.6h26.3l8.1,23.6c0.4,1.5,0.1,3-0.8,4.2C69.6,86.2,68.2,86.9,66.6,86.9z M38.2,45.5
		c0.1-0.3,0.1-0.7,0-1l-3.7-9.7h5.7h19.7h5.6l-3.7,9.7c-0.1,0.3-0.1,0.7,0,1l3,8.8H35.2L38.2,45.5z M60.8,24.7l-2,7.2H41.3l-2-7.2
		H60.8z M61.8,31.8l2-7.2h2.8l-2.7,7.2H61.8z M38.2,31.8h-2.1l-2.7-7.2h2.9L38.2,31.8z M37.5,18.2l26.4-4.8l-2.3,8.3H38.5L37.5,18.2
		z"/>
	<path class="st0" d="M63,66.3H37l-4.4,12.8c-0.4,1.1-0.2,2.2,0.5,3.2c0.7,0.9,1.7,1.5,2.8,1.5h28.2c1.1,0,2.2-0.5,2.8-1.5
		c0.7-0.9,0.8-2.1,0.5-3.2L63,66.3z"/>
</g>
</svg>
