<?xml version="1.0" encoding="utf-8"?>
<!-- Generator: Adobe Illustrator 23.0.2, SVG Export Plug-In . SVG Version: 6.00 Build 0)  -->
<svg version="1.1" id="Capa_1" xmlns="http://www.w3.org/2000/svg" xmlns:xlink="http://www.w3.org/1999/xlink" x="0px" y="0px"
	 viewBox="0 0 512 512" style="enable-background:new 0 0 512 512;" xml:space="preserve">
<style type="text/css">
	.st0{fill:#FFFFFF;}
</style>
<g>
	<g>
		<path class="st0" d="M426.7,234.8v21.3c0,6-0.3,12-0.8,18c-3,34.2-14.5,66.4-32.9,94.2c-6.3,9.5-13.4,18.5-21.3,26.8
			c-7.1,7.5-14.8,14.5-23.1,21c-9.8,7.6-20.3,14.4-31.6,20.2c-1.2,0.6-2.3,1-3.5,1.1c-0.5,0.1-0.9,0.1-1.4,0.1c-0.5,0-1,0-1.4-0.1
			c-3.4-0.5-6.4-2.5-8.1-5.7c-2.7-5.2-0.6-11.7,4.6-14.4c0.8-0.4,1.5-0.8,2.3-1.2c17.8-9.5,33.6-21.7,46.9-35.8
			c1.1-1.2,2.3-2.4,3.4-3.7c29-32.6,45.7-75.1,45.7-120.5v-21.3c0-5.9-4.8-10.7-10.7-10.7H96c-5.9,0-10.7,4.8-10.7,10.7V256
			c0,67.2,36.8,128.3,95.9,160c0.8,0.4,1.5,0.8,2.3,1.2c5.3,2.7,7.3,9.2,4.6,14.4c-1.6,3.2-4.7,5.2-8.1,5.7c-0.9,0.1-1.9,0.1-2.9,0
			c-1.2-0.2-2.3-0.5-3.5-1.1c-11.3-5.8-21.8-12.6-31.6-20.2C93.2,378,64,319.4,64,256v-21.3c0-17.6,14.4-32,32-32h298.7
			C412.3,202.7,426.7,217,426.7,234.8z"/>
	</g>
</g>
<g>
	<g>
		<path class="st0" d="M454.3,437.3l-5.8,5.7c-10.1,10.1-23.5,15.6-37.7,15.6h-331c-14.2,0-27.6-5.5-37.7-15.6l-5.7-5.7h140.8
			c1,0.1,1.9,0.1,2.9,0c3.3-0.5,6.4-2.5,8.1-5.7c2.7-5.2,0.7-11.7-4.6-14.4c-0.8-0.4-1.5-0.8-2.3-1.2c-59.2-31.7-95.9-92.8-95.9-160
			v-21.3c0-5.9,4.8-10.7,10.7-10.7h298.7c5.9,0,10.7,4.8,10.7,10.7V256c0,45.3-16.7,87.9-45.7,120.5c-1.4,1-2.6,2.2-3.4,3.7
			c-13.3,14.2-29.1,26.3-46.9,35.8c-0.8,0.4-1.5,0.8-2.3,1.2c-5.2,2.7-7.3,9.2-4.6,14.4c1.7,3.2,4.7,5.2,8.1,5.7
			c0.5,0.1,1,0.1,1.4,0.1c0.5,0,0.9,0,1.4-0.1H454.3z"/>
		<path class="st0" d="M512,298.5c0,69-131.1,94.7-136.7,95.8l-3.6,0.7l-3.9,0.8c-0.7,0.1-1.4,0.2-2.1,0.2c-5,0-9.5-3.5-10.5-8.6
			c-0.5-2.6,0-5.1,1.1-7.2c0.8-1.5,2-2.7,3.4-3.7c1.1-0.8,2.4-1.3,3.9-1.6l7.6-1.5c5.9-1.1,13.4-2.9,21.8-5.2
			c39.2-10.8,97.6-34.5,97.6-69.7c0-13.9-3.5-22.9-10.8-27.6c-13.9-8.9-40.2-2-53.9,3.1c-2.2,0.8-4.1,1.6-5.5,2.2
			c-5.4,2.4-11.7,0-14.1-5.3c-2.4-5.3-0.1-11.6,5.3-14.1c1.6-0.7,7.3-3.2,15.1-5.7c17.2-5.4,45-10.9,64.7,1.8
			C505,261.9,512,277.2,512,298.5z"/>
	</g>
</g>
<g>
	<g>
		<path class="st0" d="M328.4,113.3c17.3-21.7,17.3-55.6,0-77.3c-3.7-4.6-10.4-5.4-15-1.7s-5.4,10.4-1.7,15c11,13.7,11,36.9,0,50.7
			c-17.4,21.7-17.4,55.6,0,77.3c2.1,2.6,5.2,4,8.3,4c2.3,0,4.7-0.8,6.7-2.3c4.6-3.7,5.4-10.4,1.7-15
			C317.3,150.3,317.3,127.1,328.4,113.3z"/>
	</g>
</g>
<g>
	<g>
		<path class="st0" d="M264.3,113.3c17.4-21.7,17.4-55.6,0-77.3c-3.7-4.6-10.4-5.4-15-1.7s-5.4,10.4-1.7,15c11,13.7,11,36.9,0,50.7
			c-17.3,21.7-17.3,55.6,0,77.3c2.1,2.6,5.2,4,8.3,4c2.3,0,4.7-0.8,6.7-2.3c4.6-3.7,5.4-10.4,1.7-15
			C253.3,150.3,253.3,127.1,264.3,113.3z"/>
	</g>
</g>
<g>
	<g>
		<path class="st0" d="M200.4,113.3c17.3-21.7,17.3-55.6,0-77.3c-3.7-4.6-10.4-5.4-15-1.7s-5.3,10.4-1.7,15c11,13.7,11,36.9,0,50.7
			c-17.4,21.7-17.4,55.6,0,77.3c2.1,2.6,5.2,4,8.3,4c2.3,0,4.7-0.8,6.7-2.3c4.6-3.7,5.4-10.4,1.7-15
			C189.3,150.3,189.3,127.1,200.4,113.3z"/>
	</g>
</g>
</svg>
